# xmcd
#
# Track frame offsets: 
#        150
#        31515
#        47323
#        75398
#        93931
#        111885
#        136260
#        152901
#        168235
#        189087
#        220662
#        245416
#        265440
#        285187
#        301713
#
# Disc length: 4339 seconds
#
# Revision: 0
# Processed by: cddbd v1.5.2PL0 Copyright (c) Steve Scherf et al.
# Submitted via: ExactAudioCopyFreeDBPlugin 1.0
#
DISCID=aa10f10f
DTITLE=Various Artist - The Essential Blues [CD2]
DYEAR=2012
DGENRE=Blues
TTITLE0=Bloomfield and Kooper - Albert's Shuffle
TTITLE1=Taj Mahal - She Caught The Katy And Left Me A Mule To Ride
TTITLE2=Willie Dixon - Back Door Man
TTITLE3=Shuggie Otis - Cold Shot
TTITLE4=Big Brother and The Holding Company - Buried Alive In The Blues
TTITLE5=Muddy Waters - Mannish Boy
TTITLE6=Johnny Winter - Tired Of Tryin'
TTITLE7=Alberta Hunter - Amtrak Blues
TTITLE8=Stevie Ray Vaughan and Double Trouble - The Sky Is Crying
TTITLE9=The Allman Brothers Band - Get On With Your Life
TTITLE10=The Fabulous Thunderbirds - Feelin' Good
TTITLE11=Jimmie Vaughan - Two Wings
TTITLE12=Jeff Healey Band - Stop Breakin' Down
TTITLE13=Keb' Mo' - I'm On Your Side
TTITLE14=Etta James - Don't Let My Baby Ride
EXTD=
EXTT0=
EXTT1=
EXTT2=
EXTT3=
EXTT4=
EXTT5=
EXTT6=
EXTT7=
EXTT8=
EXTT9=
EXTT10=
EXTT11=
EXTT12=
EXTT13=
EXTT14=
PLAYORDER=
